<svg data-logo="logo" xmlns="http://www.w3.org/2000/svg" viewBox="0 0 381 43">
        <g style="opacity: 1;" id="logogram" transform="translate(0, 1) rotate(0)"><path d="M65.2314 9.32458C62.3969 6.45393 59.0318 4.17673 55.3285 2.62316C51.625 1.06959 47.6558 0.269989 43.6472 0.269989C39.6386 0.269989 35.6694 1.06959 31.966 2.62316C28.2626 4.17673 24.8976 6.45393 22.0631 9.32458L43.6472 31.1841L65.2314 9.32458Z" fill="#FFD200"></path><path d="M43.6743 31.2155C46.5088 34.0862 49.8737 36.3632 53.5772 37.9168C57.2805 39.4704 61.2499 40.27 65.2584 40.27C69.2668 40.27 73.2366 39.4704 76.9399 37.9168C80.6431 36.3632 84.0085 34.0862 86.8428 31.2155L65.2584 9.35593L43.6743 31.2155Z" fill="#06E07F"></path><path d="M43.6209 31.2107C40.7864 34.0814 37.4214 36.3585 33.718 37.912C30.0146 39.4656 26.0454 40.2652 22.0368 40.2652C18.0282 40.2652 14.059 39.4656 10.3555 37.912C6.65217 36.3585 3.28711 34.0814 0.452637 31.2107L22.0368 9.35114L43.6209 31.2107Z" fill="#E3073C"></path><path d="M65.2847 9.3293C68.1188 6.45865 71.4842 4.18156 75.1875 2.62798C78.8907 1.07441 82.8605 0.274811 86.8686 0.274811C90.8777 0.274811 94.8465 1.07441 98.5498 2.62798C102.253 4.18156 105.618 6.45865 108.453 9.3293L86.8686 31.1889L65.2847 9.3293Z" fill="#1F84EF"></path></g>
        <g style="opacity: 1;" id="logotype" transform="translate(115, 1)"><path fill="#007bff" d="M14.20 40.55L14.20 40.55Q12.66 40.55 11.53 39.42Q10.40 38.30 10.40 36.76L10.40 36.76L10.40 5.30Q10.40 3.70 11.53 2.60Q12.66 1.50 14.20 1.50L14.20 1.50L17.99 1.50L17.99 36.76Q17.99 38.30 16.86 39.42Q15.73 40.55 14.20 40.55ZM26.52 25.54L16.29 25.54L16.29 18.71L25.58 18.71Q27.07 18.71 28.19 18.05Q29.32 17.39 29.93 16.27Q30.53 15.14 30.53 13.66L30.53 13.66Q30.53 12.00 29.93 10.79Q29.32 9.59 28.11 8.95Q26.90 8.32 25.25 8.32L25.25 8.32L16.29 8.32L16.29 1.50L25.86 1.50Q29.43 1.50 32.23 3.01Q35.04 4.52 36.66 7.22Q38.29 9.91 38.29 13.49L38.29 13.49Q38.29 17.12 36.69 19.82Q35.09 22.51 32.43 24.02Q29.76 25.54 26.52 25.54L26.52 25.54ZM42.30 40.55L42.30 40.55Q40.76 40.55 39.83 39.67Q38.89 38.79 38.62 37.55Q38.34 36.31 38.73 35.33L38.73 35.33L50.72 3.65Q51.21 2.27 52.20 1.61Q53.19 0.95 54.62 0.95L54.62 0.95Q56.00 0.95 56.96 1.58Q57.92 2.21 58.42 3.65L58.42 3.65L70.35 35.33Q70.79 36.42 70.46 37.66Q70.13 38.90 69.19 39.73Q68.26 40.55 66.83 40.55L66.83 40.55Q65.62 40.55 64.60 39.92Q63.59 39.28 63.20 38.19L63.20 38.19L53.63 8.82L55.45 8.82L45.93 38.19Q45.60 39.28 44.55 39.92Q43.51 40.55 42.30 40.55ZM63.37 31.20L45.11 31.20L45.11 24.38L63.37 24.38L63.37 31.20ZM79.87 40.55L79.87 40.55Q78.22 40.55 77.14 39.48Q76.07 38.41 76.07 36.76L76.07 36.76L76.07 5.30Q76.07 3.65 77.14 2.57Q78.22 1.50 79.87 1.50L79.87 1.50L83.66 1.50L83.66 36.76Q83.66 38.41 82.59 39.48Q81.52 40.55 79.87 40.55ZM92.57 25.09L82.06 25.09L82.06 18.27L91.91 18.27Q94.06 18.27 95.38 16.93Q96.69 15.58 96.69 13.49L96.69 13.49Q96.69 10.91 95.07 9.61Q93.45 8.32 91.47 8.32L91.47 8.32L82.06 8.32L82.06 1.50L92.02 1.50Q95.59 1.50 98.37 2.98Q101.15 4.47 102.80 7.14Q104.45 9.80 104.45 13.32L104.45 13.32Q104.45 16.84 102.86 19.51Q101.26 22.18 98.56 23.64Q95.87 25.09 92.57 25.09L92.57 25.09ZM101.70 40.55L101.70 40.55Q100.66 40.55 99.78 40Q98.90 39.45 98.45 38.52L98.45 38.52L90.81 22.51L98.02 20.97L104.94 35.22Q105.33 35.98 105.33 36.87L105.33 36.87Q105.33 38.41 104.28 39.48Q103.24 40.55 101.70 40.55ZM112.75 40.55L112.75 40.55Q111.22 40.55 110.28 39.67Q109.34 38.79 109.07 37.55Q108.80 36.31 109.18 35.33L109.18 35.33L121.17 3.65Q121.66 2.27 122.66 1.61Q123.64 0.95 125.08 0.95L125.08 0.95Q126.45 0.95 127.41 1.58Q128.38 2.21 128.87 3.65L128.87 3.65L140.81 35.33Q141.25 36.42 140.91 37.66Q140.59 38.90 139.65 39.73Q138.72 40.55 137.28 40.55L137.28 40.55Q136.07 40.55 135.06 39.92Q134.04 39.28 133.66 38.19L133.66 38.19L124.09 8.82L125.90 8.82L116.39 38.19Q116.06 39.28 115.01 39.92Q113.97 40.55 112.75 40.55ZM133.82 31.20L115.56 31.20L115.56 24.38L133.82 24.38L133.82 31.20ZM182 40L165.44 40Q163.85 40 162.75 38.90Q161.65 37.80 161.65 36.20L161.65 36.20L161.65 4.74Q161.65 3.15 162.69 2.05Q163.74 0.95 165.28 0.95L165.28 0.95Q166.82 0.95 168.03 2.05Q169.24 3.15 169.24 4.74L169.24 4.74L169.24 33.02L182 33.02Q183.49 33.02 184.45 33.98Q185.41 34.94 185.41 36.48L185.41 36.48Q185.41 38.02 184.45 39.01Q183.49 40 182 40L182 40ZM195.31 40.55L195.31 40.55Q193.66 40.55 192.59 39.48Q191.52 38.41 191.52 36.76L191.52 36.76L191.68 5.13Q191.68 3.04 192.81 1.99Q193.94 0.95 195.75 0.95L195.75 0.95Q197.40 0.95 198.39 1.66Q199.38 2.38 199.82 3.42L199.82 3.42L210.93 30.43L221.93 3.42Q222.37 2.38 223.39 1.66Q224.41 0.95 226.06 0.95L226.06 0.95Q227.87 0.95 228.97 2.02Q230.07 3.09 230.07 5.13L230.07 5.13L230.24 36.76Q230.24 38.41 229.19 39.48Q228.15 40.55 226.50 40.55L226.50 40.55Q224.84 40.55 223.75 39.48Q222.65 38.41 222.70 36.76L222.70 36.76L223.09 18.44L215.33 37.14Q214.56 39.01 213.43 39.78Q212.31 40.55 210.93 40.55L210.93 40.55Q209.61 40.55 208.48 39.78Q207.36 39.01 206.59 37.14L206.59 37.14L198.72 18.39L199.11 36.76Q199.16 38.41 198.09 39.48Q197.02 40.55 195.31 40.55ZM251.30 40.83L251.30 40.83Q247.12 40.83 243.79 39.48Q240.47 38.13 238.60 35.93Q236.73 33.73 236.73 31.20L236.73 31.20Q236.73 29.66 237.69 28.67Q238.65 27.68 240.36 27.68L240.36 27.68Q241.84 27.68 242.53 28.51Q243.22 29.33 243.88 30.38L243.88 30.38Q244.81 31.86 246.52 32.93Q248.22 34.01 251.08 34.01L251.08 34.01Q252.73 34.01 254.11 33.59Q255.48 33.18 256.31 32.19Q257.13 31.20 257.13 29.61L257.13 29.61Q257.13 28.06 256.28 27.07Q255.43 26.09 253.83 25.31Q252.24 24.55 249.98 23.66L249.98 23.66Q248.06 22.95 246.08 22.07Q244.10 21.19 242.42 19.90Q240.74 18.61 239.72 16.60Q238.71 14.59 238.71 11.57L238.71 11.57Q238.71 7.99 240.36 5.57Q242.01 3.15 244.78 1.91Q247.56 0.67 251.08 0.67L251.08 0.67Q253.61 0.67 255.78 1.31Q257.96 1.94 259.55 3.04Q261.15 4.14 262.05 5.57Q262.96 7 263.02 8.59L263.02 8.59Q263.02 10.19 262.08 11.21Q261.15 12.23 259.55 12.23L259.55 12.23Q258.34 12.23 257.74 11.79Q257.13 11.34 256.47 10.36L256.47 10.36Q255.76 9.04 254.55 8.27Q253.34 7.49 251.14 7.49L251.14 7.49Q249.76 7.49 248.66 7.94Q247.56 8.38 246.93 9.20Q246.30 10.02 246.30 11.23L246.30 11.23Q246.30 12.89 247.31 13.93Q248.33 14.98 250.01 15.75Q251.69 16.52 253.61 17.29L253.61 17.29Q255.81 18.16 257.82 19.16Q259.83 20.14 261.39 21.46Q262.96 22.79 263.84 24.66Q264.72 26.52 264.72 29.22L264.72 29.22Q264.72 33.02 262.96 35.60Q261.20 38.19 258.18 39.51Q255.15 40.83 251.30 40.83Z"></path></g>
        
      </svg>