
      <svg data-logo="logo" xmlns="http://www.w3.org/2000/svg" viewBox="0 0 416 44">
        <g id="logogram" transform="translate(0, 1.5) rotate(0) "><path d="M65.2314 9.32458C62.3969 6.45393 59.0318 4.17673 55.3285 2.62316C51.625 1.06959 47.6558 0.269989 43.6472 0.269989C39.6386 0.269989 35.6694 1.06959 31.966 2.62316C28.2626 4.17673 24.8976 6.45393 22.0631 9.32458L43.6472 31.1841L65.2314 9.32458Z" fill="#FFD200"/><path d="M43.6743 31.2155C46.5088 34.0862 49.8737 36.3632 53.5772 37.9168C57.2805 39.4704 61.2499 40.27 65.2584 40.27C69.2668 40.27 73.2366 39.4704 76.9399 37.9168C80.6431 36.3632 84.0085 34.0862 86.8428 31.2155L65.2584 9.35593L43.6743 31.2155Z" fill="#06E07F"/><path d="M43.6209 31.2107C40.7864 34.0814 37.4214 36.3585 33.718 37.912C30.0146 39.4656 26.0454 40.2652 22.0368 40.2652C18.0282 40.2652 14.059 39.4656 10.3555 37.912C6.65217 36.3585 3.28711 34.0814 0.452637 31.2107L22.0368 9.35114L43.6209 31.2107Z" fill="#E3073C"/><path d="M65.2847 9.3293C68.1188 6.45865 71.4842 4.18156 75.1875 2.62798C78.8907 1.07441 82.8605 0.274811 86.8686 0.274811C90.8777 0.274811 94.8465 1.07441 98.5498 2.62798C102.253 4.18156 105.618 6.45865 108.453 9.3293L86.8686 31.1889L65.2847 9.3293Z" fill="#1F84EF"/></g>
        <g id="logotype" transform="translate(115, 1)"><path fill="#ff7a00" d="M18.59 41L9.08 41L9.08 0.91L28.16 0.91Q30.91 0.91 33.20 1.45Q35.48 2.01 37.27 3.10Q39.05 4.20 40.27 5.80Q41.48 7.40 42.13 9.46Q42.80 11.52 42.80 14.05L42.80 14.05Q42.80 18.29 40.95 21.23Q39.11 24.17 35.84 25.68Q32.56 27.20 28.11 27.20L28.11 27.20L17.71 27.20L17.71 19.88L27.18 19.88Q29.87 19.88 31.33 18.56Q32.78 17.24 32.78 14.98L32.78 14.98L32.78 13.39Q32.78 10.97 31.30 9.70Q29.82 8.44 27.18 8.44L27.18 8.44L18.59 8.44L18.59 41ZM54.56 41L45.05 41L59.24 0.91L72.16 0.91L86.35 41L76.67 41L66.94 12.62L65.84 7.84L65.34 7.84L64.30 12.62L54.56 41ZM74.69 32.91L56.49 32.91L58.80 25.93L72.44 25.93L74.69 32.91ZM99.55 41L90.04 41L90.04 0.91L111.21 0.91Q115.72 0.91 118.75 2.45Q121.77 3.98 123.31 6.73Q124.85 9.48 124.85 13.17L124.85 13.17Q124.85 16.36 123.64 18.75Q122.44 21.14 120.26 22.66Q118.09 24.17 115.06 24.66L115.06 24.66L114.73 24.61L114.90 23.95L126.45 41L114.95 41L105.38 26.37L98.67 26.37L98.67 19.05L109.45 19.05Q112.04 19.05 113.36 17.84Q114.68 16.64 114.68 14.54L114.68 14.54L114.68 12.79Q114.68 10.64 113.33 9.46Q111.98 8.27 109.45 8.27L109.45 8.27L99.55 8.27L99.55 41ZM137.94 41L128.43 41L142.62 0.91L155.54 0.91L169.73 41L160.06 41L150.32 12.62L149.22 7.84L148.72 7.84L147.68 12.62L137.94 41ZM158.07 32.91L139.87 32.91L142.18 25.93L155.82 25.93L158.07 32.91ZM211.15 41L182.33 41L182.33 0.91L191.84 0.91L191.84 33.47L211.15 33.47L211.15 41ZM224.13 41L215.11 41L215.11 0.91L230.34 0.91L237.44 25.66L238.15 28.52L238.65 28.52L239.25 25.66L246.62 0.91L261.58 0.91L261.58 41L252.56 41L252.56 13.06L252.56 9.10L252.12 9.10L251.02 13.50L243.05 41L233.70 41L225.61 13.23L224.62 9.10L224.13 9.10L224.13 13.06L224.13 41ZM282.98 41.55L282.98 41.55Q277.48 41.55 273.71 39.98Q269.94 38.41 267.91 35.55Q265.88 32.70 265.60 28.68L265.60 28.68L274.95 28.68Q275.17 30.88 276.19 32.23Q277.20 33.58 278.99 34.18Q280.78 34.78 283.20 34.78L283.20 34.78Q284.85 34.78 286.14 34.51Q287.44 34.23 288.34 33.69Q289.25 33.13 289.75 32.31Q290.24 31.48 290.24 30.33L290.24 30.33Q290.24 28.90 289.61 27.91Q288.97 26.92 287.74 26.26Q286.50 25.60 284.63 25.16L284.63 25.16L277.53 23.40Q273.96 22.57 271.46 21.14Q268.95 19.71 267.63 17.57Q266.31 15.43 266.31 12.40L266.31 12.40Q266.31 9.59 267.47 7.37Q268.63 5.14 270.77 3.57Q272.91 2.01 275.94 1.21Q278.96 0.41 282.70 0.41L282.70 0.41Q287.82 0.41 291.42 1.84Q295.02 3.27 297.06 5.94Q299.09 8.60 299.42 12.45L299.42 12.45L290.13 12.45Q289.80 10.53 288.84 9.35Q287.88 8.16 286.33 7.62Q284.79 7.06 282.59 7.06L282.59 7.06Q280.45 7.06 279.02 7.59Q277.59 8.11 276.88 9.04Q276.16 9.98 276.16 11.19L276.16 11.19Q276.16 12.45 276.79 13.36Q277.42 14.27 278.66 14.93Q279.90 15.59 281.71 16.09L281.71 16.09L288.09 17.52Q291.67 18.39 294.39 19.85Q297.12 21.31 298.63 23.65Q300.14 25.98 300.14 29.62L300.14 29.62Q300.14 32.53 298.96 34.73Q297.77 36.93 295.52 38.47Q293.26 40.01 290.10 40.78Q286.94 41.55 282.98 41.55Z"/></g>
        
      </svg>
    